<?xml version="1.0" encoding="UTF-8"?>
<svg width="50px" height="50px" viewBox="0 0 50 50" version="1.1" xmlns="http://www.w3.org/2000/svg" xmlns:xlink="http://www.w3.org/1999/xlink">
    <title>编组 2</title>
    <defs>
        <linearGradient x1="0%" y1="44.0475539%" x2="100%" y2="44.0475539%" id="linearGradient-1">
            <stop stop-color="#82F6D4" offset="0%"></stop>
            <stop stop-color="#46DEA0" offset="100%"></stop>
        </linearGradient>
    </defs>
    <g id="7-13" stroke="none" stroke-width="1" fill="none" fill-rule="evenodd">
        <g id="1-1混合培训" transform="translate(-897.000000, -161.000000)">
            <g id="2" transform="translate(65.000000, 125.000000)">
                <g id="1备份-5" transform="translate(800.000000, 21.000000)">
                    <g id="编组-2" transform="translate(32.000000, 15.000000)">
                        <circle id="椭圆形" fill="#3DCB91" opacity="0.18027798" cx="25" cy="25" r="25"></circle>
                        <path d="M24.5863508,14 C30.953498,14 36.1727016,18.4707713 36.1727016,24.0694107 C36.1727016,29.6685778 30.9537962,34.1388214 24.5863508,34.1388214 C23.7971253,34.1388214 23.0093452,34.0635675 22.2186743,33.9182219 L18.9957874,35.8542437 C18.3176762,36.2615785 17.4557893,35.7661416 17.4665497,34.9751494 L17.506471,32.035979 C14.7022758,30.1543557 13,27.2454704 13,24.0694107 C13,18.4707713 18.2192036,14 24.5863508,14 Z M30.4598277,22.6266691 C29.6492878,22.6266691 28.9914584,23.2844985 28.9914584,24.0950383 C28.9914584,24.9055781 29.6492878,25.5634075 30.4598277,25.5634075 C31.2703675,25.5634075 31.9281969,24.9055781 31.9281969,24.0950383 C31.9281969,23.2844985 31.2703675,22.6266691 30.4598277,22.6266691 Z M18.712874,22.6266691 C17.9023342,22.6266691 17.2445048,23.2844985 17.2445048,24.0950383 C17.2445048,24.9055781 17.9023342,25.5634075 18.712874,25.5634075 C19.5234138,25.5634075 20.1812432,24.9055781 20.1812432,24.0950383 C20.1812432,23.2844985 19.5234138,22.6266691 18.712874,22.6266691 Z M24.5863508,22.6266691 C23.775811,22.6266691 23.1179816,23.2844985 23.1179816,24.0950383 C23.1179816,24.9055781 23.775811,25.5634075 24.5863508,25.5634075 C25.3968906,25.5634075 26.05472,24.9055781 26.05472,24.0950383 C26.05472,23.2844985 25.3968906,22.6266691 24.5863508,22.6266691 Z" id="形状结合" fill="url(#linearGradient-1)" fill-rule="nonzero"></path>
                    </g>
                </g>
            </g>
        </g>
    </g>
</svg>