<?xml version="1.0" encoding="UTF-8"?>
<svg width="36px" height="36px" viewBox="0 0 36 36" version="1.1" xmlns="http://www.w3.org/2000/svg" xmlns:xlink="http://www.w3.org/1999/xlink">
    <title>C_图标资源 / 03一级界面图标 / 发现 / icon_综合资讯</title>
    <g id="C_图标资源-/-03一级界面图标-/-发现-/-icon_综合资讯" stroke="none" stroke-width="1" fill="none" fill-rule="evenodd">
        <path d="M28,4 C29.1045695,4 30,4.8954305 30,6 L30,30 C30,31.1045695 29.1045695,32 28,32 L8,32 C6.8954305,32 6,31.1045695 6,30 L6,6 C6,4.8954305 6.8954305,4 8,4 L28,4 Z M27,7 L9,7 L9,29 L27,29 L27,7 Z" id="矩形" fill="#1A1F36" fill-rule="nonzero"></path>
        <path d="M21,17 L20,20 L12,20 L13,17 L21,17 Z M25,11 L24,14 L12,14 L13,11 L25,11 Z" id="形状结合" fill="#366FF9" fill-rule="nonzero"></path>
    </g>
</svg>