<?xml version="1.0" encoding="UTF-8"?>
<svg width="14px" height="14px" viewBox="0 0 14 14" version="1.1" xmlns="http://www.w3.org/2000/svg" xmlns:xlink="http://www.w3.org/1999/xlink">
    <title>培训师2</title>
    <g id="0.首页" stroke="none" stroke-width="1" fill="none" fill-rule="evenodd">
        <g id="导航" transform="translate(-72.000000, -426.000000)" fill="#FFFFFF">
            <g id="培训师2" transform="translate(72.000000, 426.000000)">
                <path d="M11.5685013,10.1591374 C12.4507038,10.6388207 12.9997294,11.5626594 12.9994,12.566826 C12.9994,12.8057669 12.8057644,12.9994023 12.5668236,12.9994023 C12.3278827,12.9994023 12.1342693,12.8057669 12.1342693,12.566826 C12.1342693,11.5313499 11.2948014,10.691948 10.2593033,10.691948 C9.22389302,10.691948 8.38442521,11.5313499 8.38442521,12.566826 C8.38442521,12.8059427 8.19063596,12.9997539 7.95160724,12.9997539 C7.71249064,12.9997539 7.51870138,12.8059427 7.51870138,12.566826 C7.51870138,11.5276586 8.09767424,10.6229572 8.94957796,10.1591374 C8.403914,9.62659045 8.23499656,8.81665244 8.52251654,8.1103763 C8.80994862,7.40412213 9.49656021,6.9423676 10.2590396,6.9423676 C11.0215191,6.9423676 11.7081306,7.40412213 11.9955627,8.1103763 C12.2830827,8.81665244 12.1141872,9.62659045 11.5685013,10.1591374 Z M10.2593033,9.82672949 C10.6201204,9.82672949 10.9534731,9.63432444 11.1337938,9.32191068 C11.3142023,9.00949692 11.3142023,8.62457697 11.1337938,8.3121632 C10.9534731,7.99974944 10.6201204,7.80723454 10.2593033,7.80723454 C9.7016868,7.80723454 9.24955581,8.25938749 9.24955581,8.81698201 C9.24955581,9.37468639 9.7016868,9.82672949 10.2593033,9.82672949 Z M8.9166206,5.93837667 L3.21688755,5.93837667 C2.95889736,5.93837667 2.79995502,5.76741588 2.79995502,5.48837693 C2.79995502,5.20935995 2.95889736,5.03839916 3.21750275,5.03839916 L8.9166206,5.03839916 C9.17463276,5.03839916 9.3335751,5.20935995 9.3335751,5.48837693 C9.3335751,5.76741588 9.17463276,5.93837667 8.9166206,5.93837667 Z M6.47410699,7.95908006 L3.21750275,7.95908006 C2.95951257,7.95908006 2.79995502,7.7880973 2.79995502,7.50908032 C2.79995502,7.23006334 2.95889736,7.05910255 3.21750275,7.05910255 L6.47410699,7.05910255 C6.73209718,7.05910255 6.89112741,7.23006334 6.89112741,7.50908032 C6.89112741,7.7880973 6.73209718,7.95908006 6.47410699,7.95908006 Z M6.39977717,12.0766842 C6.57023262,12.0679176 6.73156986,12.1539143 6.81936826,12.300267 C6.90716665,12.4465976 6.90716665,12.629489 6.81936826,12.7758196 C6.73156986,12.9221503 6.57023262,13.0080591 6.39977717,12.9994023 L2.69730384,12.9994023 C1.76144676,13.0007646 1.0016259,12.2433606 1,11.3075035 L1,2.69190132 C1.0016259,1.75604423 1.76144676,0.998728134 2.69730384,1 L10.1015474,1 C10.5511077,0.99923348 10.9824756,1.17698349 11.3008876,1.49427494 C11.6192996,1.81158837 11.7986755,2.2424289 11.7994665,2.69190132 L11.7994665,5.76921755 C11.7994665,6.02479086 11.5922745,6.23207066 11.3365914,6.23207066 C11.0809082,6.23207066 10.8737383,6.02479086 10.8737383,5.76921755 L10.8737383,2.69190132 C10.8737383,2.26655368 10.5287187,1.92212734 10.1021626,1.92212734 L2.69789707,1.92212734 C2.2719562,1.92212734 1.92632142,2.26655368 1.92632142,2.69190132 L1.92632142,11.3062951 C1.92632142,11.7316647 2.271341,12.076069 2.69789707,12.076069 L6.39977717,12.076069 L6.39977717,12.0766842 Z" id="peixunke"></path>
            </g>
        </g>
    </g>
</svg>