<?xml version="1.0" encoding="UTF-8"?>
<svg width="599px" height="599px" viewBox="0 0 599 599" version="1.1" xmlns="http://www.w3.org/2000/svg" xmlns:xlink="http://www.w3.org/1999/xlink">
    <title>quanping</title>
    <g id="2021-10" stroke="none" stroke-width="1" fill="none" fill-rule="evenodd">
        <g id="画板" fill="#FFFFFF">
            <path d="M389.157745,599 C377.712631,599 366.267516,587.55414 366.267516,576.109025 C366.267516,564.663911 377.712631,553.21507 389.157745,553.21507 L549.402019,553.21507 L553.21507,392.973777 C553.21507,381.528662 564.663911,370.083548 576.109025,370.083548 C587.55414,370.083548 599,381.528662 599,392.973777 L599,568.476962 C599,587.55414 583.738108,599 568.476962,599 L389.157745,599 Z M22.8909746,228.916452 C11.4451147,228.916452 0,217.471338 0,206.025478 L0,30.5230382 C0,11.4451147 15.2611465,0 30.5230382,0 L206.025478,0 C217.471338,0 228.916452,11.4451147 228.916452,22.8909746 C228.916452,34.3360893 217.471338,45.7841847 206.025478,45.7841847 L45.7841847,45.7841847 L45.7841847,206.025478 C45.7841847,217.471338 34.3360893,228.916452 22.8909746,228.916452 Z M30.5230382,599 C11.4451147,599 0,583.738108 0,568.476962 L0,392.973777 C0,381.528662 11.4451147,370.083548 22.8909746,370.083548 C34.3360893,370.083548 45.7841847,381.528662 45.7841847,392.973777 L45.7841847,522.695013 L164.057325,404.419637 C167.873357,400.606586 175.503185,396.789809 179.319217,396.789809 C183.135248,396.789809 190.764331,400.606586 194.580363,404.419637 C198.393414,408.235669 202.209446,415.864752 202.209446,419.680783 C202.209446,427.312847 198.393414,431.126643 194.580363,434.942675 L76.3042421,553.21507 L206.025478,553.21507 C217.471338,553.21507 228.916452,564.663911 228.916452,576.109025 C228.916452,587.55414 217.471338,599 206.025478,599 L30.5230382,599 Z M576.109025,228.916452 C564.663911,228.916452 553.21507,217.471338 553.21507,206.025478 L553.21507,76.3042421 L434.942675,194.580363 C431.126643,198.393414 423.496815,202.209446 419.680783,202.209446 C412.051701,202.209446 408.235669,198.393414 404.419637,194.580363 C396.789809,186.948299 396.789809,171.686408 404.419637,164.057325 L522.695013,45.7841847 L392.973777,45.7841847 C381.528662,45.7841847 370.083548,34.3360893 370.083548,22.8909746 C370.083548,11.4451147 381.528662,0 392.973777,0 L568.476962,0 C587.55414,0 599,15.2611465 599,30.5230382 L599,206.025478 C599,217.471338 587.55414,228.916452 576.109025,228.916452 Z" id="quanping"></path>
        </g>
    </g>
</svg>